<svg id="Layer_1" data-name="Layer 1" xmlns="http://www.w3.org/2000/svg" width="38" height="47.31" viewBox="0 0 38 47.31"><defs><style>.cls-1{fill:#231f20;fill-opacity:0.5;}.cls-2{fill:#ef4136;}.cls-3{fill:#971b1e;}</style></defs><title>marker</title><path class="cls-1" d="M38,18.83A17.82,17.82,0,1,0,6,29.64H6L20.22,47.45,34.46,29.64h0A17.84,17.84,0,0,0,38,18.83Z" transform="translate(0 -0.14)"/><path class="cls-2" d="M36,18.1A18,18,0,1,0,3.66,29h0L18,47,32.42,29h0A18,18,0,0,0,36,18.1Z" transform="translate(0 -0.14)"/><path class="cls-3" d="M25.56,18.22a7.16,7.16,0,1,1-7.16-7.16h0A7.17,7.17,0,0,1,25.56,18.22Z" transform="translate(0 -0.14)"/></svg>