<svg version="1.1" xmlns="http://www.w3.org/2000/svg" xmlns:xlink="http://www.w3.org/1999/xlink" x="0px" y="0px" width="76px"
	 height="94.66px" viewBox="0 0 76 94.66" style="enable-background:new 0 0 76 94.66;" xml:space="preserve">
<style type="text/css">
	.st0{fill:#231F20;fill-opacity:0.5;}
	.st1{fill:#EF4137;}
	.st2{fill:#981C20;}
</style>
<defs>
</defs>
<path class="st0" d="M76,37.42C75.98,17.74,60.01,1.79,40.33,1.81S4.7,17.81,4.72,37.49C4.73,45.27,7.28,52.84,12,59.04l0,0
	l28.44,35.62l28.48-35.62l0,0C73.58,52.8,76.06,45.21,76,37.42z"/>
<path class="st1" d="M72,35.96C71.98,16.08,55.84-0.02,35.96,0S-0.02,16.16,0,36.04c0.01,7.84,2.58,15.47,7.32,21.72l0,0l28.68,36
	l28.84-36l0,0C69.54,51.47,72.06,43.81,72,35.96z"/>
<path class="st2" d="M51.12,36.2c0,7.91-6.41,14.32-14.32,14.32S22.48,44.11,22.48,36.2s6.41-14.32,14.32-14.32l0,0l0,0
	C44.7,21.89,51.11,28.29,51.12,36.2z"/>
</svg>
